<svg width="0" height="0" class="hidden"><symbol fill="none" xmlns="http://www.w3.org/2000/svg" viewBox="0 0 90 74" id="auto"><circle cx="64" cy="26" r="26" fill="#FFEFC7"/><path d="m5.895 48.545 2.333-7a1.167 1.167 0 0 1 1.106-.798h5.833c.645 0 1.167.522 1.167 1.166v5.834c0 .58-.426 1.072-1.001 1.155l-8.167 1.166a1.167 1.167 0 0 1-1.272-1.524ZM14 46.735V43.08h-3.826L8.704 47.49l5.297-.756Z" fill="#2D2D2D"/><path d="M2.333 25.58c-.502 0-.947-.322-1.106-.798l-1.166-3.5A1.164 1.164 0 0 1 0 20.913v-4.667c0-.644.522-1.166 1.167-1.166h52.28a6.994 6.994 0 0 1 13.053 3.5v26.833h2.333c.645 0 1.167.522 1.167 1.167v14c0 .644-.522 1.166-1.167 1.166h-1.166v2.334h1.166v2.333h-4.666V64.08h1.166v-2.334H60.55a5.833 5.833 0 1 1 0-2.333H63v-7H37.816L35 55.229v4.184h2.45a5.833 5.833 0 1 1 0 2.333H23.333v2.334H24.5v2.333h-4.667V64.08H21v-2.334h-4.783a5.833 5.833 0 0 1-11.434 0H1.167A1.167 1.167 0 0 1 0 60.58V48.913c0-.149.028-.296.083-.434L4.75 36.812a1.167 1.167 0 0 1 1.083-.732h14c.645 0 1.167.522 1.167 1.166v8.167h19.833v-7.159a6.85 6.85 0 0 1 6.842-6.841H52.5v-1.506L30.135 22.08H9.007l-.901 2.702A1.167 1.167 0 0 1 7 25.58H5.833v2.333c0 .644-.522 1.167-1.166 1.167a1.167 1.167 0 1 0 1.166 1.166h2.334a3.5 3.5 0 1 1-4.667-3.3V25.58H2.333Zm52.5 31.5a3.5 3.5 0 1 0 0 7 3.5 3.5 0 0 0 0-7Zm-11.666 7a3.5 3.5 0 1 0 0-7 3.5 3.5 0 0 0 0 7Zm-32.667 0a3.5 3.5 0 1 0 0-7 3.5 3.5 0 0 0 0 7Zm8.167-25.667H6.623l-4.29 10.724v4.443h2.334v2.333H2.333v3.5h2.45a5.833 5.833 0 0 1 11.434 0h2.45v-21Zm45.5-19.833a4.667 4.667 0 0 0-9.334 0v26.833h9.334V18.58Zm1.166 40.833h2.334v-7h-2.334v7Zm-44.333 0h2.333v-7H21v7Zm0-11.667v2.334h3.5c.644 0 1.167.522 1.167 1.166v8.167h7v-4.667c0-.31.123-.606.341-.825l3.5-3.5c.22-.218.516-.341.825-.341h30.334v-2.334H21Zm26.833-14h-.158a4.513 4.513 0 0 0-4.508 4.508v1.326h4.666v-5.834Zm2.334 0v7c0 .645-.523 1.167-1.167 1.167h-5.833v3.5H52.5V33.746h-2.333Zm2.333-6.31V22.08H37.198L52.5 27.436Zm-36.167-7.69H52.5v-2.333H16.333v2.333Zm-7 0H14v-2.333H9.333v2.333Zm-3.174 3.5L7 20.724v-3.311H2.333v3.311l.841 2.522H6.16Z" fill="#2D2D2D"/></symbol><symbol fill="none" xmlns="http://www.w3.org/2000/svg" viewBox="0 0 80 75" id="engineer"><circle cx="54" cy="26" r="26" fill="#FFEFC7"/><path d="m51.776 50.352-2.741-.587-.01-.004-6.576-1.406c.044-.322.068-.647.07-.972v-3.054a13.954 13.954 0 0 0 6.442-11.75V30.09h1.503a.955.955 0 0 0 .957-.957v-3.282a.955.955 0 0 0-.957-.957h-.691a14.74 14.74 0 0 0-11.355-14.168V8.555a.96.96 0 0 0-.957-.957h-4.922a.957.957 0 0 0-.957.957v2.172a14.74 14.74 0 0 0-11.356 14.168h-.69a.955.955 0 0 0-.957.957v3.282a.955.955 0 0 0 .957.957h1.502v2.488a13.954 13.954 0 0 0 6.442 11.75v3.054c.002.325.026.65.07.972l-6.576 1.406h-.007l-2.743.587a7.556 7.556 0 0 0-5.953 7.354v13.743a.957.957 0 0 0 .957.957h43.543a.957.957 0 0 0 .957-.957V57.702a7.555 7.555 0 0 0-5.952-7.35ZM47.86 24.895h-4.52V19.29a.957.957 0 0 0-1.914 0v5.605h-3.007V12.687a12.84 12.84 0 0 1 9.44 12.208ZM33.496 9.512h3.008v15.383h-3.008V9.512Zm-1.914 3.176v12.207h-3.008V19.29a.957.957 0 1 0-1.914 0v5.605h-4.52a12.839 12.839 0 0 1 9.442-12.207Zm-11.09 14.121h29.015v1.368H20.493v-1.368Zm2.462 5.77V30.09h24.093v2.488a12.048 12.048 0 0 1-24.095 0h.002ZM35 46.535c1.93.002 3.839-.398 5.605-1.176v2.024a5.606 5.606 0 0 1-11.21 0v-2.024A13.889 13.889 0 0 0 35 46.535ZM14.185 57.702a5.633 5.633 0 0 1 4.44-5.479l1.593-.341v18.606h-6.033V57.702Zm7.947-6.23 5.906-1.264a7.532 7.532 0 0 0 6.007 4.627v15.653H22.132V51.472Zm13.825 19.016V54.834a7.531 7.531 0 0 0 6.007-4.626l5.906 1.264v19.016H35.957Zm19.857 0h-6.032V51.883l1.593.34a5.633 5.633 0 0 1 4.439 5.48v12.785Z" fill="#2D2D2D"/><path d="M53.49 60.813a.955.955 0 0 0-.957.957v3.42a.957.957 0 1 0 1.914 0v-3.42a.957.957 0 0 0-.957-.957ZM30.549 58.637h-4.922a.957.957 0 1 0 0 1.914h4.922a.958.958 0 0 0 0-1.914Z" fill="#2D2D2D"/></symbol><symbol fill="none" xmlns="http://www.w3.org/2000/svg" viewBox="0 0 80 75" id="tools"><circle cx="54" cy="26" r="26" fill="#FFEFC7"/><g clip-path="url('#clip0_3_8404')" fill="#2D2D2D"><path d="m.221 11.421 4.669 8.17c.157.276.42.475.73.553l4.354 1.089L24.913 36.17l1.65-1.65-15.172-15.172a1.164 1.164 0 0 0-.541-.307l-4.185-1.05-3.975-6.96 3.408-3.407 6.962 3.978 1.05 4.185c.051.206.158.393.307.543L29.59 31.503l1.65-1.65-14.938-14.939-1.089-4.353a1.169 1.169 0 0 0-.553-.73L6.49 5.161a1.167 1.167 0 0 0-1.4.188L.421 10.018c-.375.37-.457.944-.2 1.403ZM48.742 28 23.069 53.677l-1.651-1.65L47.092 26.35l1.65 1.65ZM18.573 54.585a1.167 1.167 0 0 0-1-.566H10.57c-.41 0-.789.214-1 .566l-3.5 5.835c-.223.37-.223.832 0 1.202l3.5 5.835c.211.35.59.566 1 .566h7.003c.41 0 .789-.215 1-.566l3.5-5.835c.223-.37.223-.833 0-1.202l-3.5-5.835Zm-1.66 11.104H11.23l-2.8-4.668 2.8-4.669h5.682l2.8 4.669-2.8 4.668Z"/><path d="M56.085 33.011c7.708.026 13.978-6.201 14.004-13.91a13.965 13.965 0 0 0-.429-3.478 1.167 1.167 0 0 0-1.957-.544l-7.265 7.26-5.764-1.921-1.922-5.763 7.265-7.266a1.167 1.167 0 0 0-.548-1.958c-7.475-1.893-15.068 2.631-16.961 10.106a13.929 13.929 0 0 0-.428 3.47c.003.919.098 1.835.284 2.734L16.805 47.3c-.9-.186-1.815-.28-2.734-.284-7.735 0-14.005 6.27-14.005 14.005 0 7.734 6.27 14.004 14.005 14.004 7.735 0 14.005-6.27 14.005-14.004a13.735 13.735 0 0 0-.284-2.735l6.119-6.119 2.676 2.676a1.168 1.168 0 0 0 1.65 0l.584-.584a1.314 1.314 0 0 1 1.85 0 1.307 1.307 0 0 1 0 1.852l-.583.583a1.167 1.167 0 0 0 0 1.65L54.01 72.266a9.42 9.42 0 1 0 13.38-13.26l-.06-.06L53.41 45.023a1.167 1.167 0 0 0-1.65 0l-.584.583a1.313 1.313 0 0 1-1.85 0 1.307 1.307 0 0 1-.003-1.848l.002-.002.584-.584a1.167 1.167 0 0 0 0-1.65l-2.676-2.676 6.119-6.12c.9.187 1.815.282 2.734.285Zm4.585 39.68a7.092 7.092 0 0 1-2.482-.453l9.115-9.114a7.077 7.077 0 0 1-6.633 9.567ZM47.45 42.36a3.642 3.642 0 0 0 5.135 5.128L65.68 60.596c.143.142.276.293.404.445l-9.978 9.979a6.812 6.812 0 0 1-.446-.404L42.553 57.508a3.642 3.642 0 0 0-5.135-5.129l-1.867-1.867 10.03-10.015 1.868 1.862Zm4.712-11.737-26.474 26.47c-.29.29-.408.71-.309 1.108 1.602 6.288-2.198 12.683-8.486 14.284-6.288 1.601-12.683-2.198-14.284-8.487-1.601-6.288 2.198-12.683 8.487-14.284a11.756 11.756 0 0 1 5.797 0c.398.097.818-.02 1.109-.308l26.468-26.47c.29-.29.407-.71.307-1.108-1.59-6.215 2.159-12.541 8.373-14.132 1.174-.3 2.389-.415 3.599-.34l-6.156 6.159a1.166 1.166 0 0 0-.283 1.194l2.334 7.002c.117.348.39.622.739.738l7.003 2.334c.418.14.88.03 1.193-.282l6.156-6.156c.014.223.021.443.021.663.033 6.412-5.138 11.637-11.551 11.67-.992.005-1.98-.117-2.94-.363-.398-.099-.819.017-1.109.307h.006Z"/><path d="m60.413 63.697-1.65 1.65-11.67-11.67 1.65-1.65 11.67 11.67Z"/></g><defs><clipPath id="clip0_3_8404"><path fill="#fff" transform="translate(0 5)" d="M0 0h70v70H0z"/></clipPath></defs></symbol><symbol fill="none" xmlns="http://www.w3.org/2000/svg" viewBox="0 0 75 75" id="clock"><circle cx="49" cy="26" r="26" fill="#FFEFC7"/><g clip-path="url('#clip0_3_8391')" fill="#2D2D2D"><path d="M35 74.926c-19.3 0-35-15.46-35-34.463S15.7 6 35 6s35 15.46 35 34.463c0 19.004-15.7 34.463-35 34.463Zm0-66.054c-17.69 0-32.083 14.173-32.083 31.591C2.917 57.882 17.31 72.055 35 72.055c17.69 0 32.083-14.174 32.083-31.592S52.69 8.872 35 8.872Z"/><path d="M51.041 57.695c-.373 0-.747-.14-1.032-.419L33.966 41.48a1.435 1.435 0 0 1-.426-1.016v-21.54c0-.792.653-1.436 1.458-1.436.805 0 1.459.644 1.459 1.436V39.87l15.616 15.377c.568.56.568 1.47 0 2.03-.286.279-.66.42-1.033.42Z"/></g><defs><clipPath id="clip0_3_8391"><path fill="#fff" transform="translate(0 6)" d="M0 0h70v68.926H0z"/></clipPath></defs></symbol></svg>