<svg aria-hidden="true" style="width:0;height:0;position:absolute;overflow:hidden" xmlns="http://www.w3.org/2000/svg"><defs><symbol id="icon-logo" viewBox="0 0 72 32"><path fill="#fff" style="fill:var(--color1,#fff)" d="m2.048 29.126-.25.955 6.532-.006c.232 0 .348.089.348.267a.57.57 0 0 1-.023.148l-.163.593c-.07.277-.248.415-.534.415H1.571c-.848 0-1.272-.336-1.272-1.009 0-.174.029-.372.087-.593l.778-2.966c.279-1.068.952-1.602 2.021-1.602h6.399c.228 0 .343.087.343.261a.57.57 0 0 1-.023.148l-.163.599c-.074.277-.254.415-.54.415H2.663l-.25.949h6.538c.232 0 .348.089.348.267a.57.57 0 0 1-.023.148l-.151.593c-.074.277-.255.415-.546.415H2.047zM11.39 26.747l-.255.955h5.51l.255-.949-5.51-.006zm-.621 2.379-.256.949h5.51l.255-.949h-5.51zm-.569-3.381c.07-.277.252-.415.546-.415h6.381c.844 0 1.266.336 1.266 1.009 0 .174-.029.372-.087.593l-.076.297c-.17.637-.426 1.032-.766 1.186.159.095.238.277.238.546 0 .178-.033.392-.099.641l-.081.297c-.279 1.068-.95 1.602-2.015 1.602H9.126c-.232-.004-.348-.095-.348-.273 0-.044.006-.091.017-.142l1.405-5.339zM20.1 26.747l-.412 1.548h5.51l.412-1.542-5.51-.006zm-1.19-1.002c.074-.277.254-.415.54-.415h6.387c.844 0 1.266.336 1.266 1.009 0 .174-.029.372-.087.593l-.319 1.186c-.279 1.068-.95 1.602-2.015 1.602h-5.365l-.36 1.364c-.07.277-.25.415-.54.415h-.581c-.232 0-.348-.091-.348-.273 0-.04.006-.087.017-.142l1.405-5.339zM28.81 26.747l-.871 3.328 5.51.006.877-3.328-5.516-.006zm5.737-1.417c.844 0 1.266.336 1.266 1.009 0 .174-.029.372-.087.593l-.778 2.966c-.279 1.068-.95 1.602-2.015 1.602h-5.226c-.844 0-1.266-.336-1.266-1.009 0-.174.029-.372.087-.593l.778-2.966c.279-1.068.952-1.602 2.021-1.602h5.22zM36.864 29.227l-.488 1.857c-.07.277-.25.415-.54.415h-.581c-.232 0-.348-.091-.348-.273 0-.04.006-.087.017-.142l1.399-5.333c.077-.277.259-.415.546-.415h.581c.232 0 .348.089.348.267a.57.57 0 0 1-.023.148l-.482 1.851c-.023.02-.035.036-.035.047v.006c0 .004.002.006.006.006.035 0 .118-.03.25-.089l4.831-2.242h2.845l-6.544 3.085 4.93 3.085h-2.845l-3.658-2.242c-.101-.059-.168-.089-.203-.089a.017.017 0 0 0-.017.012.13.13 0 0 0 .012.047z"/><path fill="#fff" style="fill:var(--color1,#fff)" d="m46.23 26.747-.412 1.548h5.51l.412-1.542-5.51-.006zm-1.191-1.002c.074-.277.254-.415.54-.415h6.387c.844 0 1.266.336 1.266 1.009 0 .174-.029.372-.087.593l-.319 1.186c-.279 1.068-.95 1.602-2.015 1.602h-5.365l-.36 1.364c-.07.277-.25.415-.54.415h-.581c-.232 0-.348-.091-.348-.273 0-.04.006-.087.017-.142l1.405-5.339zM54.87 30.313l-1.092 1.186h-1.637l4.825-5.215c.577-.637 1.136-.955 1.678-.955s.938.318 1.19.955l2.084 5.215h-1.637l-.476-1.186h-4.936zm4.367-1.424-.918-2.302-2.125 2.302h3.043zM64.19 29.126l-.517 1.958c-.069.277-.25.415-.54.415h-.581c-.232 0-.349-.091-.349-.273 0-.04.006-.087.017-.142l1.428-5.458h.006c.051-.198.221-.297.511-.297h.581c.232 0 .348.091.348.273 0 .04-.006.087-.017.142l-.517 1.958h5.516l.546-2.076h.006c.051-.198.221-.297.511-.297h.581c.232 0 .348.091.348.273 0 .04-.006.087-.017.142l-1.405 5.339c-.069.277-.25.415-.54.415h-.581c-.232 0-.349-.091-.349-.273 0-.04.006-.087.017-.142l.517-1.958h-5.521zM50.188 10.034c0 5.266-6.212 9.534-13.874 9.534S22.44 15.299 22.44 10.034C22.44 4.768 28.652.5 36.314.5s13.874 4.269 13.874 9.534zm-5.669 5.94h-2.392l-5.69-3.488c-.157-.092-.262-.138-.316-.138-.012 0-.021.006-.027.018 0 .018.006.043.018.074l-.759 2.888c-.108.431-.388.646-.84.646h-.903c-.361 0-.542-.142-.542-.424a1.1 1.1 0 0 1 .027-.221l.601-2.291h-8.812c.568.885 1.392 1.719 2.465 2.457 2.229 1.532 5.394 2.529 8.965 2.529 3.183 0 6.043-.792 8.205-2.049zM27.748 4.313h8.38c.323 0 .484.123.484.369a.794.794 0 0 1-.033.21l-.23.847c-.104.391-.359.587-.764.587h-9.246l-.353 1.342h9.117l.167-.635c.12-.431.403-.646.849-.646h.903c.361 0 .542.138.542.415a.87.87 0 0 1-.036.231l-.75 2.879c-.036.031-.054.055-.054.074v.009c0 .006.003.009.009.009.054 0 .184-.046.388-.138l7.515-3.488h2.632a9.425 9.425 0 0 0-1.991-1.802c-2.229-1.532-5.394-2.529-8.965-2.529-3.363 0-6.366.885-8.566 2.267zm19.981 2.694-8.844 4.169 6.633 4.15c2.083-1.511 3.157-3.4 3.157-5.291 0-1.03-.319-2.059-.946-3.027zM25.47 9.681l-.353 1.351 9.107-.008.352-1.342H25.47z"/></symbol><symbol id="icon-phone-header" viewBox="0 0 32 32"><path fill="#fcd127" style="fill:var(--color1,#fcd127)" d="M25.291 19.823c-.655-.682-1.445-1.047-2.283-1.047-.831 0-1.628.358-2.31 1.04l-2.134 2.127c-.176-.094-.351-.182-.52-.27a8.314 8.314 0 0 1-.669-.358c-1.999-1.27-3.816-2.924-5.558-5.065-.844-1.067-1.412-1.965-1.824-2.877.554-.507 1.067-1.033 1.567-1.54.189-.189.378-.385.567-.574 1.418-1.418 1.418-3.255 0-4.674l-1.844-1.844c-.209-.209-.425-.425-.628-.642a31.411 31.411 0 0 0-1.27-1.256c-.655-.648-1.439-.993-2.263-.993s-1.621.344-2.296.993l-.014.014-2.296 2.317A4.937 4.937 0 0 0 .05 8.315c-.162 1.972.419 3.809.865 5.011 1.094 2.951 2.729 5.687 5.167 8.618 2.958 3.532 6.517 6.322 10.583 8.287 1.553.736 3.627 1.607 5.943 1.756.142.007.29.014.425.014 1.56 0 2.87-.561 3.897-1.675.007-.014.02-.02.027-.034.351-.425.756-.811 1.182-1.222.29-.277.588-.567.878-.871.669-.696 1.02-1.506 1.02-2.337 0-.837-.358-1.641-1.04-2.317l-3.708-3.721zm2.418 7.112c-.007 0-.007.007 0 0-.263.284-.534.54-.824.824-.439.419-.885.858-1.303 1.351-.682.729-1.486 1.074-2.54 1.074-.101 0-.209 0-.311-.007-2.006-.128-3.87-.912-5.268-1.581-3.823-1.851-7.179-4.478-9.969-7.807-2.303-2.776-3.843-5.342-4.863-8.098-.628-1.682-.858-2.992-.756-4.228.068-.79.371-1.445.932-2.006L5.11 4.154c.331-.311.682-.479 1.027-.479.426 0 .77.257.986.473l.02.02c.412.385.804.783 1.216 1.209.209.216.425.432.642.655l1.844 1.844c.716.716.716 1.378 0 2.094-.196.196-.385.392-.581.581a35.386 35.386 0 0 1-1.695 1.648c-.014.014-.027.02-.034.034-.581.581-.473 1.148-.351 1.533l.02.061c.48 1.162 1.155 2.256 2.181 3.559l.007.007c1.864 2.296 3.829 4.086 5.997 5.457.277.176.561.317.831.453.243.122.473.236.669.358.027.014.054.034.081.047.23.115.446.169.669.169.56 0 .912-.351 1.027-.466l2.31-2.31c.23-.23.594-.506 1.02-.506.419 0 .763.263.973.493a.166.166 0 0 1 .013.014l3.721 3.721c.696.689.696 1.398.007 2.114zM17.294 7.612c1.769.297 3.377 1.135 4.66 2.418s2.114 2.891 2.418 4.66a.905.905 0 0 0 .898.756c.054 0 .101-.007.155-.014a.913.913 0 0 0 .75-1.054c-.365-2.141-1.378-4.093-2.924-5.639s-3.498-2.56-5.639-2.924c-.5-.081-.966.25-1.054.743s.236.973.736 1.054zM31.963 14.116c-.601-3.525-2.263-6.734-4.816-9.287S21.386.615 17.861.014a.909.909 0 0 0-1.047.743c-.081.5.25.966.75 1.054 3.147.534 6.018 2.026 8.3 4.302a15.296 15.296 0 0 1 4.302 8.3.905.905 0 0 0 .898.756c.054 0 .101-.007.155-.014a.895.895 0 0 0 .743-1.04z"/></symbol><symbol id="icon-search" viewBox="0 0 32 32"><path d="m31.72 30.368-7.776-7.776a13.588 13.588 0 0 0 3.349-8.947C27.293 6.117 21.17.001 13.649.001 6.121.001.005 6.124.005 13.645s6.123 13.644 13.644 13.644c3.42 0 6.549-1.263 8.947-3.349l7.776 7.777c.185.184.433.284.674.284s.49-.092.674-.284a.96.96 0 0 0 0-1.348zM1.913 13.644c0-6.471 5.265-11.729 11.729-11.729 6.471 0 11.729 5.265 11.729 11.729S20.113 25.38 13.642 25.38c-6.464 0-11.729-5.265-11.729-11.736z"/></symbol><symbol id="icon-menu-button" viewBox="0 0 32 32"><path d="M30.667 17.6H1.334C.598 17.6.001 16.883.001 16s.597-1.6 1.333-1.6h29.333c.736 0 1.333.717 1.333 1.6s-.597 1.6-1.333 1.6zM30.667 8H1.334C.598 8 .001 7.283.001 6.4s.597-1.6 1.333-1.6h29.333c.736 0 1.333.717 1.333 1.6S31.403 8 30.667 8zM30.667 27.2H1.334c-.736 0-1.333-.717-1.333-1.6S.598 24 1.334 24h29.333c.736 0 1.333.717 1.333 1.6s-.597 1.6-1.333 1.6z"/></symbol><symbol id="icon-location" viewBox="0 0 31 32"><path fill="#fcd127" style="fill:var(--color1,#fcd127)" d="M15.272.727C9.05.727 3.988 5.789 3.988 12.011c0 2.048.919 4.251.957 4.344.297.704.882 1.798 1.304 2.439l7.737 11.722c.317.481.785.756 1.286.756s.969-.276 1.286-.755l7.737-11.723a18.02 18.02 0 0 0 1.304-2.439c.039-.092.956-2.295.956-4.344 0-6.222-5.062-11.284-11.284-11.284zm9.104 15.113c-.265.631-.81 1.649-1.189 2.224L15.45 29.787c-.153.232-.201.232-.354 0L7.359 18.064A16.725 16.725 0 0 1 6.17 15.84c-.011-.027-.854-2.055-.854-3.829 0-5.49 4.466-9.956 9.956-9.956s9.956 4.466 9.956 9.956c0 1.776-.844 3.809-.853 3.829z"/><path fill="#fcd127" style="fill:var(--color1,#fcd127)" d="M15.272 6.038c-3.294 0-5.974 2.68-5.974 5.974s2.68 5.974 5.974 5.974 5.974-2.68 5.974-5.974-2.68-5.974-5.974-5.974zm0 10.62c-2.561 0-4.646-2.084-4.646-4.646s2.085-4.646 4.646-4.646 4.646 2.084 4.646 4.646-2.085 4.646-4.646 4.646z"/></symbol><symbol id="icon-clock" viewBox="0 0 31 32"><path fill="#fcd127" style="fill:var(--color1,#fcd127)" d="M15.273 7.409a.955.955 0 0 0-1.91 0v10.5a.958.958 0 0 0 .481.829l6.682 3.818a.958.958 0 0 0 1.378-1.08.955.955 0 0 0-.431-.577l-6.201-3.543V7.41z"/><path fill="#fcd127" style="fill:var(--color1,#fcd127)" d="M15.273 31.273A15.271 15.271 0 1 0 15.274.731a15.271 15.271 0 0 0-.001 30.542zM28.636 16A13.363 13.363 0 1 1 1.91 16a13.363 13.363 0 0 1 26.726 0z"/></symbol></defs></svg>