<svg width="124" height="55" viewBox="0 0 124 55" fill="none" xmlns="http://www.w3.org/2000/svg">
<path d="M3.5196 50.061L3.09046 51.7026L14.318 51.6924C14.7172 51.6924 14.9168 51.8453 14.9168 52.1512C14.9168 52.226 14.9035 52.311 14.8768 52.4062L14.5974 53.4258C14.4776 53.9016 14.1716 54.1396 13.6792 54.1396H2.70124C1.24416 54.1396 0.515625 53.5618 0.515625 52.4062C0.515625 52.1071 0.565525 51.7672 0.665325 51.3865L2.00264 46.2882C2.48168 44.4529 3.63936 43.5352 5.47568 43.5352H16.4736C16.8662 43.5352 17.0625 43.6847 17.0625 43.9838C17.0625 44.0586 17.0492 44.1436 17.0225 44.2387L16.7431 45.2686C16.6167 45.7444 16.3073 45.9823 15.815 45.9823H4.57748L4.14834 47.6138H15.3858C15.785 47.6138 15.9846 47.7667 15.9846 48.0726C15.9846 48.1474 15.9713 48.2324 15.9447 48.3275L15.6852 49.3472C15.5588 49.823 15.2461 50.061 14.7471 50.061H3.5196Z" fill="white"/>
<path d="M19.5774 45.9721L19.1383 47.6138H28.6093L29.0484 45.9823L19.5774 45.9721ZM18.5096 50.061L18.0704 51.6924H27.5415L27.9806 50.061H18.5096ZM17.5315 44.2489C17.6513 43.7731 17.964 43.5352 18.4696 43.5352H29.4377C30.8881 43.5352 31.6133 44.113 31.6133 45.2686C31.6133 45.5677 31.5634 45.9076 31.4636 46.2882L31.3338 46.7981C31.0411 47.8925 30.602 48.5723 30.0165 48.8374C30.2893 49.0005 30.4257 49.3132 30.4257 49.7755C30.4257 50.0813 30.3691 50.4484 30.256 50.8767L30.1163 51.3865C29.6372 53.2219 28.4829 54.1396 26.6532 54.1396H15.6852C15.286 54.1328 15.0864 53.9764 15.0864 53.6705C15.0864 53.5957 15.0964 53.5142 15.1164 53.4258L17.5315 44.2489Z" fill="white"/>
<path d="M34.5474 45.9721L33.8388 48.6334H43.3098L44.0184 45.9823L34.5474 45.9721ZM32.5015 44.2489C32.6279 43.7731 32.9373 43.5352 33.4296 43.5352H44.4076C45.8581 43.5352 46.5833 44.113 46.5833 45.2686C46.5833 45.5677 46.5334 45.9076 46.4336 46.2882L45.8847 48.3275C45.4056 50.1629 44.2513 51.0806 42.4216 51.0806H33.2001L32.5813 53.4258C32.4616 53.9016 32.1522 54.1396 31.6532 54.1396H30.6552C30.256 54.1396 30.0564 53.9832 30.0564 53.6705C30.0564 53.6025 30.0664 53.521 30.0863 53.4258L32.5015 44.2489Z" fill="white"/>
<path d="M49.5174 45.9721L48.0204 51.6924L57.4914 51.7026L58.9984 45.9823L49.5174 45.9721ZM59.3776 43.5352C60.8281 43.5352 61.5533 44.113 61.5533 45.2686C61.5533 45.5677 61.5034 45.9076 61.4036 46.2882L60.0663 51.3865C59.5872 53.2219 58.4329 54.1396 56.6032 54.1396H47.6212C46.1708 54.1396 45.4456 53.5618 45.4456 52.4062C45.4456 52.1071 45.4955 51.7672 45.5953 51.3865L46.9326 46.2882C47.4116 44.4529 48.5693 43.5352 50.4056 43.5352H59.3776Z" fill="white"/>
<path d="M63.3596 50.2343L62.5213 53.4258C62.4016 53.9016 62.0922 54.1396 61.5932 54.1396H60.5952C60.196 54.1396 59.9964 53.9832 59.9964 53.6705C59.9964 53.6025 60.0064 53.521 60.0263 53.4258L62.4315 44.2591C62.5646 43.7833 62.8773 43.5454 63.3696 43.5454H64.3676C64.7668 43.5454 64.9664 43.6983 64.9664 44.0042C64.9664 44.079 64.9531 44.164 64.9265 44.2591L64.0982 47.4404C64.0583 47.4744 64.0383 47.5016 64.0383 47.522V47.5322C64.0383 47.539 64.0416 47.5424 64.0483 47.5424C64.1082 47.5424 64.2512 47.4914 64.4774 47.3895L72.7808 43.5352H77.671L66.4235 48.8374L74.8965 54.1396H70.0063L63.7189 50.2853C63.5459 50.1833 63.4295 50.1323 63.3696 50.1323C63.3563 50.1323 63.3463 50.1391 63.3397 50.1527C63.3397 50.1731 63.3463 50.2003 63.3596 50.2343Z" fill="white"/>
<path d="M79.4574 45.9721L78.7488 48.6334H88.2198L88.9284 45.9823L79.4574 45.9721ZM77.4115 44.2489C77.5379 43.7731 77.8473 43.5352 78.3396 43.5352H89.3176C90.768 43.5352 91.4933 44.113 91.4933 45.2686C91.4933 45.5677 91.4434 45.9076 91.3436 46.2882L90.7947 48.3275C90.3156 50.1629 89.1613 51.0806 87.3316 51.0806H78.1101L77.4913 53.4258C77.3716 53.9016 77.0622 54.1396 76.5632 54.1396H75.5652C75.166 54.1396 74.9664 53.9832 74.9664 53.6705C74.9664 53.6025 74.9764 53.521 74.9963 53.4258L77.4115 44.2489Z" fill="white"/>
<path d="M94.3076 52.1003L92.4314 54.1396H89.617L97.9104 45.1768C98.9017 44.0824 99.8631 43.5352 100.795 43.5352C101.726 43.5352 102.408 44.0824 102.841 45.1768L106.423 54.1396H103.609L102.791 52.1003H94.3076ZM101.813 49.6531L100.236 45.6968L96.5831 49.6531H101.813Z" fill="white"/>
<path d="M110.326 50.061L109.437 53.4258C109.318 53.9016 109.008 54.1396 108.509 54.1396H107.511C107.112 54.1396 106.912 53.9832 106.912 53.6705C106.912 53.6025 106.922 53.521 106.942 53.4258L109.397 44.045H109.407C109.494 43.7051 109.787 43.5352 110.286 43.5352H111.284C111.683 43.5352 111.882 43.6915 111.882 44.0042C111.882 44.0722 111.872 44.1538 111.852 44.2489L110.964 47.6138H120.445L121.383 44.045H121.393C121.48 43.7051 121.773 43.5352 122.272 43.5352H123.27C123.669 43.5352 123.868 43.6915 123.868 44.0042C123.868 44.0722 123.858 44.1538 123.838 44.2489L121.423 53.4258C121.304 53.9016 120.994 54.1396 120.495 54.1396H119.497C119.098 54.1396 118.898 53.9832 118.898 53.6705C118.898 53.6025 118.908 53.521 118.928 53.4258L119.816 50.061H110.326Z" fill="white"/>
<path fill-rule="evenodd" clip-rule="evenodd" d="M86.2604 17.2463C86.2604 26.2966 75.5844 33.6332 62.4149 33.6332C49.2454 33.6332 38.5693 26.2966 38.5693 17.2463C38.5693 8.19605 49.2454 0.859375 62.4149 0.859375C75.5844 0.859375 86.2604 8.19605 86.2604 17.2463ZM76.5174 27.4547H72.4058L62.6254 21.4601C62.3564 21.3015 62.1752 21.2222 62.0821 21.2222C62.0614 21.2222 62.0459 21.2328 62.0355 21.2539C62.0355 21.2857 62.0459 21.3279 62.0666 21.3808L60.7625 26.3446C60.5762 27.0847 60.095 27.4547 59.3187 27.4547H57.7663C57.1453 27.4547 56.8348 27.2115 56.8348 26.7252C56.8348 26.6195 56.8504 26.4926 56.8814 26.3446L57.9149 22.4064H42.7685C43.744 23.9273 45.1611 25.3612 47.0055 26.6288C50.8365 29.2614 56.2768 30.9759 62.4149 30.9759C67.8849 30.9759 72.8008 29.6143 76.5174 27.4547ZM47.692 7.41276C51.4734 5.03703 56.6348 3.51671 62.4149 3.51671C68.5529 3.51671 73.9933 5.23117 77.8242 7.86385C79.207 8.81411 80.3496 9.85784 81.246 10.9616H76.7216L63.8053 16.9562C63.4534 17.1148 63.2309 17.1941 63.1378 17.1941C63.1274 17.1941 63.1222 17.1888 63.1222 17.1783V17.1624C63.1222 17.1307 63.1533 17.0884 63.2154 17.0355L64.5039 12.0876C64.5453 11.9396 64.566 11.8074 64.566 11.6911C64.566 11.2154 64.2555 10.9775 63.6345 10.9775H62.0821C61.3162 10.9775 60.8298 11.3475 60.6228 12.0876L60.3362 13.1796H44.6656L45.2725 10.8728H61.1639C61.8601 10.8728 62.2976 10.5364 62.4764 9.86365L62.8716 8.40754C62.9092 8.27298 62.928 8.15283 62.928 8.04711C62.928 7.62421 62.6505 7.41276 62.0954 7.41276H47.692ZM82.0337 12.0433L66.8326 19.2082L78.2322 26.3406C81.8117 23.7427 83.6591 20.4964 83.6591 17.2463C83.6591 15.4761 83.1111 13.7071 82.0337 12.0433ZM43.7765 16.6396L43.1697 18.9608L58.8228 18.9466L59.4282 16.6396H43.7765Z" fill="white"/>
</svg>
