<svg aria-hidden="true" style="position: absolute; width: 0; height: 0; overflow: hidden;" version="1.1" xmlns="http://www.w3.org/2000/svg" xmlns:xlink="http://www.w3.org/1999/xlink">
<defs>
<symbol id="icon-logo" viewBox="0 0 72 32">
<path fill="#fff" style="fill: var(--color1, #fff)" d="M2.048 29.126l-0.25 0.955 6.532-0.006c0.232 0 0.348 0.089 0.348 0.267 0 0.044-0.008 0.093-0.023 0.148l-0.163 0.593c-0.070 0.277-0.248 0.415-0.534 0.415h-6.387c-0.848 0-1.272-0.336-1.272-1.009 0-0.174 0.029-0.372 0.087-0.593l0.778-2.966c0.279-1.068 0.952-1.602 2.021-1.602h6.399c0.228 0 0.343 0.087 0.343 0.261 0 0.044-0.008 0.093-0.023 0.148l-0.163 0.599c-0.074 0.277-0.254 0.415-0.54 0.415h-6.538l-0.25 0.949h6.538c0.232 0 0.348 0.089 0.348 0.267 0 0.044-0.008 0.093-0.023 0.148l-0.151 0.593c-0.074 0.277-0.255 0.415-0.546 0.415h-6.532z"></path>
<path fill="#fff" style="fill: var(--color1, #fff)" d="M11.39 26.747l-0.255 0.955h5.51l0.255-0.949-5.51-0.006zM10.769 29.126l-0.256 0.949h5.51l0.255-0.949h-5.51zM10.2 25.745c0.070-0.277 0.252-0.415 0.546-0.415h6.381c0.844 0 1.266 0.336 1.266 1.009 0 0.174-0.029 0.372-0.087 0.593l-0.076 0.297c-0.17 0.637-0.426 1.032-0.766 1.186 0.159 0.095 0.238 0.277 0.238 0.546 0 0.178-0.033 0.392-0.099 0.641l-0.081 0.297c-0.279 1.068-0.95 1.602-2.015 1.602h-6.381c-0.232-0.004-0.348-0.095-0.348-0.273 0-0.044 0.006-0.091 0.017-0.142l1.405-5.339z"></path>
<path fill="#fff" style="fill: var(--color1, #fff)" d="M20.1 26.747l-0.412 1.548h5.51l0.412-1.542-5.51-0.006zM18.91 25.745c0.074-0.277 0.254-0.415 0.54-0.415h6.387c0.844 0 1.266 0.336 1.266 1.009 0 0.174-0.029 0.372-0.087 0.593l-0.319 1.186c-0.279 1.068-0.95 1.602-2.015 1.602h-5.365l-0.36 1.364c-0.070 0.277-0.25 0.415-0.54 0.415h-0.581c-0.232 0-0.348-0.091-0.348-0.273 0-0.040 0.006-0.087 0.017-0.142l1.405-5.339z"></path>
<path fill="#fff" style="fill: var(--color1, #fff)" d="M28.81 26.747l-0.871 3.328 5.51 0.006 0.877-3.328-5.516-0.006zM34.547 25.33c0.844 0 1.266 0.336 1.266 1.009 0 0.174-0.029 0.372-0.087 0.593l-0.778 2.966c-0.279 1.068-0.95 1.602-2.015 1.602h-5.226c-0.844 0-1.266-0.336-1.266-1.009 0-0.174 0.029-0.372 0.087-0.593l0.778-2.966c0.279-1.068 0.952-1.602 2.021-1.602h5.22z"></path>
<path fill="#fff" style="fill: var(--color1, #fff)" d="M36.864 29.227l-0.488 1.857c-0.070 0.277-0.25 0.415-0.54 0.415h-0.581c-0.232 0-0.348-0.091-0.348-0.273 0-0.040 0.006-0.087 0.017-0.142l1.399-5.333c0.077-0.277 0.259-0.415 0.546-0.415h0.581c0.232 0 0.348 0.089 0.348 0.267 0 0.044-0.008 0.093-0.023 0.148l-0.482 1.851c-0.023 0.020-0.035 0.036-0.035 0.047v0.006c0 0.004 0.002 0.006 0.006 0.006 0.035 0 0.118-0.030 0.25-0.089l4.831-2.242h2.845l-6.544 3.085 4.93 3.085h-2.845l-3.658-2.242c-0.101-0.059-0.168-0.089-0.203-0.089-0.008 0-0.014 0.004-0.017 0.012 0 0.012 0.004 0.028 0.012 0.047z"></path>
<path fill="#fff" style="fill: var(--color1, #fff)" d="M46.23 26.747l-0.412 1.548h5.51l0.412-1.542-5.51-0.006zM45.039 25.745c0.074-0.277 0.254-0.415 0.54-0.415h6.387c0.844 0 1.266 0.336 1.266 1.009 0 0.174-0.029 0.372-0.087 0.593l-0.319 1.186c-0.279 1.068-0.95 1.602-2.015 1.602h-5.365l-0.36 1.364c-0.070 0.277-0.25 0.415-0.54 0.415h-0.581c-0.232 0-0.348-0.091-0.348-0.273 0-0.040 0.006-0.087 0.017-0.142l1.405-5.339z"></path>
<path fill="#fff" style="fill: var(--color1, #fff)" d="M54.87 30.313l-1.092 1.186h-1.637l4.825-5.215c0.577-0.637 1.136-0.955 1.678-0.955s0.938 0.318 1.19 0.955l2.084 5.215h-1.637l-0.476-1.186h-4.936zM59.237 28.889l-0.918-2.302-2.125 2.302h3.043z"></path>
<path fill="#fff" style="fill: var(--color1, #fff)" d="M64.19 29.126l-0.517 1.958c-0.069 0.277-0.25 0.415-0.54 0.415h-0.581c-0.232 0-0.349-0.091-0.349-0.273 0-0.040 0.006-0.087 0.017-0.142l1.428-5.458h0.006c0.051-0.198 0.221-0.297 0.511-0.297h0.581c0.232 0 0.348 0.091 0.348 0.273 0 0.040-0.006 0.087-0.017 0.142l-0.517 1.958h5.516l0.546-2.076h0.006c0.051-0.198 0.221-0.297 0.511-0.297h0.581c0.232 0 0.348 0.091 0.348 0.273 0 0.040-0.006 0.087-0.017 0.142l-1.405 5.339c-0.069 0.277-0.25 0.415-0.54 0.415h-0.581c-0.232 0-0.349-0.091-0.349-0.273 0-0.040 0.006-0.087 0.017-0.142l0.517-1.958h-5.521z"></path>
<path fill="#fff" style="fill: var(--color1, #fff)" d="M50.188 10.034c0 5.266-6.212 9.534-13.874 9.534s-13.874-4.269-13.874-9.534c0-5.266 6.212-9.534 13.874-9.534s13.874 4.269 13.874 9.534zM44.519 15.974h-2.392l-5.69-3.488c-0.157-0.092-0.262-0.138-0.316-0.138-0.012 0-0.021 0.006-0.027 0.018 0 0.018 0.006 0.043 0.018 0.074l-0.759 2.888c-0.108 0.431-0.388 0.646-0.84 0.646h-0.903c-0.361 0-0.542-0.142-0.542-0.424 0-0.062 0.009-0.135 0.027-0.221l0.601-2.291h-8.812c0.568 0.885 1.392 1.719 2.465 2.457 2.229 1.532 5.394 2.529 8.965 2.529 3.183 0 6.043-0.792 8.205-2.049zM27.748 4.313h8.38c0.323 0 0.484 0.123 0.484 0.369 0 0.061-0.011 0.131-0.033 0.21l-0.23 0.847c-0.104 0.391-0.359 0.587-0.764 0.587h-9.246l-0.353 1.342h9.117l0.167-0.635c0.12-0.431 0.403-0.646 0.849-0.646h0.903c0.361 0 0.542 0.138 0.542 0.415 0 0.068-0.012 0.145-0.036 0.231l-0.75 2.879c-0.036 0.031-0.054 0.055-0.054 0.074v0.009c0 0.006 0.003 0.009 0.009 0.009 0.054 0 0.184-0.046 0.388-0.138l7.515-3.488h2.632c-0.522-0.642-1.186-1.249-1.991-1.802-2.229-1.532-5.394-2.529-8.965-2.529-3.363 0-6.366 0.885-8.566 2.267zM47.729 7.007l-8.844 4.169 6.633 4.15c2.083-1.511 3.157-3.4 3.157-5.291 0-1.030-0.319-2.059-0.946-3.027zM25.47 9.681l-0.353 1.351 9.107-0.008 0.352-1.342h-9.106z"></path>
</symbol>
<symbol id="icon-phone-header" viewBox="0 0 32 32">
<path fill="#fcd127" style="fill: var(--color1, #fcd127)" d="M25.291 19.823c-0.655-0.682-1.445-1.047-2.283-1.047-0.831 0-1.628 0.358-2.31 1.040l-2.134 2.127c-0.176-0.094-0.351-0.182-0.52-0.27-0.243-0.121-0.473-0.236-0.669-0.358-1.999-1.27-3.816-2.924-5.558-5.065-0.844-1.067-1.412-1.965-1.824-2.877 0.554-0.507 1.067-1.033 1.567-1.54 0.189-0.189 0.378-0.385 0.567-0.574 1.418-1.418 1.418-3.255 0-4.674l-1.844-1.844c-0.209-0.209-0.425-0.425-0.628-0.642-0.405-0.419-0.831-0.851-1.27-1.256-0.655-0.648-1.439-0.993-2.263-0.993s-1.621 0.344-2.296 0.993c-0.007 0.007-0.007 0.007-0.014 0.014l-2.296 2.317c-0.865 0.864-1.358 1.918-1.466 3.141-0.162 1.972 0.419 3.809 0.865 5.011 1.094 2.951 2.729 5.687 5.167 8.618 2.958 3.532 6.517 6.322 10.583 8.287 1.553 0.736 3.627 1.607 5.943 1.756 0.142 0.007 0.29 0.014 0.425 0.014 1.56 0 2.87-0.561 3.897-1.675 0.007-0.014 0.020-0.020 0.027-0.034 0.351-0.425 0.756-0.811 1.182-1.222 0.29-0.277 0.588-0.567 0.878-0.871 0.669-0.696 1.020-1.506 1.020-2.337 0-0.837-0.358-1.641-1.040-2.317l-3.708-3.721zM27.709 26.935c-0.007 0-0.007 0.007 0 0-0.263 0.284-0.534 0.54-0.824 0.824-0.439 0.419-0.885 0.858-1.303 1.351-0.682 0.729-1.486 1.074-2.54 1.074-0.101 0-0.209 0-0.311-0.007-2.006-0.128-3.87-0.912-5.268-1.581-3.823-1.851-7.179-4.478-9.969-7.807-2.303-2.776-3.843-5.342-4.863-8.098-0.628-1.682-0.858-2.992-0.756-4.228 0.068-0.79 0.371-1.445 0.932-2.006l2.303-2.303c0.331-0.311 0.682-0.479 1.027-0.479 0.426 0 0.77 0.257 0.986 0.473 0.007 0.007 0.013 0.013 0.020 0.020 0.412 0.385 0.804 0.783 1.216 1.209 0.209 0.216 0.425 0.432 0.642 0.655l1.844 1.844c0.716 0.716 0.716 1.378 0 2.094-0.196 0.196-0.385 0.392-0.581 0.581-0.567 0.581-1.108 1.121-1.695 1.648-0.014 0.014-0.027 0.020-0.034 0.034-0.581 0.581-0.473 1.148-0.351 1.533 0.007 0.020 0.014 0.041 0.020 0.061 0.48 1.162 1.155 2.256 2.181 3.559l0.007 0.007c1.864 2.296 3.829 4.086 5.997 5.457 0.277 0.176 0.561 0.317 0.831 0.453 0.243 0.122 0.473 0.236 0.669 0.358 0.027 0.014 0.054 0.034 0.081 0.047 0.23 0.115 0.446 0.169 0.669 0.169 0.56 0 0.912-0.351 1.027-0.466l2.31-2.31c0.23-0.23 0.594-0.506 1.020-0.506 0.419 0 0.763 0.263 0.973 0.493 0.007 0.007 0.007 0.007 0.013 0.014l3.721 3.721c0.696 0.689 0.696 1.398 0.007 2.114z"></path>
<path fill="#fcd127" style="fill: var(--color1, #fcd127)" d="M17.294 7.612c1.769 0.297 3.377 1.135 4.66 2.418s2.114 2.891 2.418 4.66c0.074 0.446 0.459 0.756 0.898 0.756 0.054 0 0.101-0.007 0.155-0.014 0.5-0.081 0.831-0.554 0.75-1.054-0.365-2.141-1.378-4.093-2.924-5.639s-3.498-2.56-5.639-2.924c-0.5-0.081-0.966 0.25-1.054 0.743s0.236 0.973 0.736 1.054z"></path>
<path fill="#fcd127" style="fill: var(--color1, #fcd127)" d="M31.963 14.116c-0.601-3.525-2.263-6.734-4.816-9.287s-5.761-4.214-9.286-4.815c-0.493-0.088-0.959 0.25-1.047 0.743-0.081 0.5 0.25 0.966 0.75 1.054 3.147 0.534 6.018 2.026 8.3 4.302 2.283 2.283 3.769 5.153 4.302 8.3 0.074 0.446 0.459 0.756 0.898 0.756 0.054 0 0.101-0.007 0.155-0.014 0.493-0.074 0.831-0.547 0.743-1.040z"></path>
</symbol>
<symbol id="icon-search" viewBox="0 0 32 32">
<path d="M31.72 30.368l-7.776-7.776c2.086-2.398 3.349-5.527 3.349-8.947 0-7.528-6.123-13.644-13.644-13.644-7.528 0-13.644 6.123-13.644 13.644s6.123 13.644 13.644 13.644c3.42 0 6.549-1.263 8.947-3.349l7.776 7.777c0.185 0.184 0.433 0.284 0.674 0.284s0.49-0.092 0.674-0.284c0.369-0.369 0.369-0.979 0-1.348zM1.913 13.644c0-6.471 5.265-11.729 11.729-11.729 6.471 0 11.729 5.265 11.729 11.729s-5.258 11.736-11.729 11.736c-6.464 0-11.729-5.265-11.729-11.736z"></path>
</symbol>
<symbol id="icon-menu-button" viewBox="0 0 32 32">
<path d="M30.667 17.6h-29.333c-0.736 0-1.333-0.717-1.333-1.6s0.597-1.6 1.333-1.6h29.333c0.736 0 1.333 0.717 1.333 1.6s-0.597 1.6-1.333 1.6z"></path>
<path d="M30.667 8h-29.333c-0.736 0-1.333-0.717-1.333-1.6s0.597-1.6 1.333-1.6h29.333c0.736 0 1.333 0.717 1.333 1.6s-0.597 1.6-1.333 1.6z"></path>
<path d="M30.667 27.2h-29.333c-0.736 0-1.333-0.717-1.333-1.6s0.597-1.6 1.333-1.6h29.333c0.736 0 1.333 0.717 1.333 1.6s-0.597 1.6-1.333 1.6z"></path>
</symbol>
</defs>
</svg>
