<svg width="0" height="0" class="hidden">
  <symbol fill="none" xmlns="http://www.w3.org/2000/svg" viewBox="0 0 90 74" id="auto">
    <circle cx="64" cy="26" r="26" fill="#FFEFC7"></circle>
    <path d="M5.89465 48.5446L8.22798 41.5446C8.38665 41.0683 8.83203 40.747 9.33398 40.7466H15.1673C15.8116 40.7466 16.334 41.269 16.334 41.9132V47.7466C16.3341 48.327 15.9076 48.8192 15.333 48.9016L7.16632 50.0682C7.11148 50.0761 7.05607 50.08 7.00065 50.0799C6.35636 50.0794 5.83442 49.5566 5.83486 48.9123C5.83501 48.7874 5.85513 48.6631 5.89465 48.5446ZM14.0007 46.7351V43.0799H10.1752L8.70398 47.4911L14.0007 46.7351Z" fill="#2D2D2D"></path>
    <path d="M2.33334 25.5797C1.83138 25.5793 1.386 25.258 1.22733 24.7817L0.0606689 21.2817C0.0207062 21.1629 0.000297546 21.0385 0 20.913V16.2464C0 15.6021 0.522377 15.0797 1.16667 15.0797H53.4473C55.3774 11.7337 59.6546 10.5859 63.0006 12.516C65.1675 13.7659 66.5019 16.0781 66.5 18.5797V45.413H68.8333C69.4776 45.413 70 45.9354 70 46.5797V60.5797C70 61.224 69.4776 61.7464 68.8333 61.7464H67.6667V64.0797H68.8333V66.413H64.1667V64.0797H65.3333V61.7464H60.55C59.9057 64.9029 56.8244 66.9395 53.6678 66.2952C50.5113 65.6509 48.4747 62.5696 49.119 59.413C49.7633 56.2565 52.8446 54.2199 56.0012 54.8642C58.2921 55.3319 60.0823 57.1221 60.55 59.413H63V52.413H37.8163L35 55.2294V59.413H37.45C38.0943 56.2565 41.1756 54.2199 44.3322 54.8642C47.4887 55.5085 49.5253 58.5898 48.881 61.7464C48.2367 64.9029 45.1554 66.9395 41.9988 66.2952C39.7079 65.8275 37.9177 64.0373 37.45 61.7464H23.3333V64.0797H24.5V66.413H19.8333V64.0797H21V61.7464H16.2167C15.5756 64.9037 12.4965 66.9433 9.33917 66.3022C7.04361 65.8361 5.24942 64.0419 4.78333 61.7464H1.16667C0.522377 61.7464 0 61.224 0 60.5797V48.913C0 48.7644 0.0281448 48.6171 0.0828323 48.479L4.7495 36.8124C4.92698 36.3695 5.35617 36.0794 5.83334 36.0797H19.8333C20.4776 36.0797 21 36.6021 21 37.2464V45.413H40.8333V38.2544C40.8379 34.4779 43.8982 31.4176 47.6747 31.413H52.5V29.9069L30.135 22.0797H9.00667L8.106 24.7817C7.94734 25.258 7.50196 25.5793 7 25.5797H5.83334V27.913C5.83334 28.5573 5.31096 29.0797 4.66667 29.0797C4.02238 29.0797 3.5 29.6021 3.5 30.2464C3.5 30.8907 4.02238 31.413 4.66667 31.413C5.31096 31.413 5.83334 30.8907 5.83334 30.2464H8.16667C8.16623 32.1794 6.59896 33.7461 4.66594 33.7456C2.73292 33.7452 1.16623 32.1779 1.16667 30.2449C1.16696 28.7619 2.10175 27.4401 3.5 26.9457V25.5796H2.33334V25.5797ZM54.8333 57.0797C52.9003 57.0797 51.3333 58.6467 51.3333 60.5797C51.3333 62.5127 52.9003 64.0797 54.8333 64.0797C56.7664 64.0797 58.3333 62.5127 58.3333 60.5797C58.3333 58.6467 56.7664 57.0797 54.8333 57.0797ZM43.1667 64.0797C45.0997 64.0797 46.6667 62.5127 46.6667 60.5797C46.6667 58.6467 45.0997 57.0797 43.1667 57.0797C41.2336 57.0797 39.6667 58.6467 39.6667 60.5797C39.6667 62.5127 41.2336 64.0797 43.1667 64.0797ZM10.5 64.0797C12.433 64.0797 14 62.5127 14 60.5797C14 58.6467 12.433 57.0797 10.5 57.0797C8.56698 57.0797 7 58.6467 7 60.5797C7 62.5127 8.56698 64.0797 10.5 64.0797ZM18.6667 38.413H6.62317L2.33334 49.137V53.5797H4.66667V55.913H2.33334V59.413H4.78333C5.42442 56.2558 8.50354 54.2161 11.6608 54.8572C13.9564 55.3233 15.7506 57.1175 16.2167 59.413H18.6667V38.413ZM64.1667 18.5797C64.1667 16.0024 62.0773 13.913 59.5 13.913C56.9227 13.913 54.8333 16.0024 54.8333 18.5797V45.413H64.1667V18.5797ZM65.3333 59.413H67.6667V52.413H65.3333V59.413ZM21 59.413H23.3333V52.413H21V59.413ZM21 47.7464V50.0797H24.5C25.1443 50.0797 25.6667 50.6021 25.6667 51.2464V59.413H32.6667V54.7464C32.6667 54.4369 32.7897 54.1403 33.0085 53.9215L36.5085 50.4215C36.7272 50.2028 37.0239 50.0797 37.3333 50.0797H67.6667V47.7464H21ZM47.8333 33.7464H47.6747C45.186 33.749 43.1693 35.7657 43.1667 38.2544V39.5797H47.8333V33.7464ZM50.1667 33.7464V40.7464C50.1667 41.3907 49.6443 41.913 49 41.913H43.1667V45.413H52.5V33.7464H50.1667ZM52.5 27.4359V22.0797H37.198L52.5 27.4359ZM16.3333 19.7464H52.5V17.413H16.3333V19.7464ZM9.33334 19.7464H14V17.413H9.33334V19.7464ZM6.15884 23.2464L7 20.724V17.413H2.33334V20.724L3.1745 23.2464H6.15884Z" fill="#2D2D2D"></path>
  </symbol>
  <symbol fill="none" xmlns="http://www.w3.org/2000/svg" viewBox="0 0 80 75" id="engineer">
    <circle cx="54" cy="26" r="26" fill="#FFEFC7"></circle>
    <path d="M51.7761 50.3518L49.0346 49.7645L49.0248 49.7612L42.4491 48.3546C42.4935 48.0325 42.5169 47.7079 42.5191 47.3828V44.3291C44.4927 43.0684 46.1172 41.3313 47.243 39.2779C48.3688 37.2245 48.9597 34.9207 48.9613 32.5789V30.0906H50.4636C50.5893 30.0907 50.7138 30.066 50.8299 30.0179C50.9461 29.9699 51.0516 29.8994 51.1405 29.8105C51.2294 29.7216 51.2999 29.6161 51.3479 29.4999C51.396 29.3838 51.4207 29.2593 51.4206 29.1336V25.8523C51.4207 25.7266 51.396 25.6022 51.3479 25.486C51.2999 25.3699 51.2294 25.2643 51.1405 25.1755C51.0516 25.0866 50.9461 25.0161 50.8299 24.968C50.7138 24.9199 50.5893 24.8952 50.4636 24.8953H49.7729C49.7331 21.6051 48.5935 18.4229 46.5357 15.8554C44.4779 13.2879 41.6201 11.4827 38.4176 10.7274V8.55469C38.4176 8.42899 38.3929 8.30451 38.3449 8.18836C38.2968 8.07222 38.2263 7.96669 38.1374 7.8778C38.0485 7.78892 37.943 7.71843 37.8269 7.67036C37.7107 7.62229 37.5862 7.59758 37.4605 7.59766H32.5387C32.2848 7.59766 32.0414 7.69849 31.8619 7.87796C31.6825 8.05744 31.5816 8.30087 31.5816 8.55469V10.7274C28.3791 11.4827 25.5214 13.2879 23.4635 15.8554C21.4057 18.4229 20.2662 21.6051 20.2263 24.8953H19.5356C19.4099 24.8952 19.2854 24.9199 19.1693 24.968C19.0532 25.0161 18.9476 25.0866 18.8587 25.1755C18.7699 25.2643 18.6994 25.3699 18.6513 25.486C18.6032 25.6022 18.5785 25.7266 18.5786 25.8523V29.1336C18.5785 29.2593 18.6032 29.3838 18.6513 29.4999C18.6994 29.6161 18.7699 29.7216 18.8587 29.8105C18.9476 29.8994 19.0532 29.9699 19.1693 30.0179C19.2854 30.066 19.4099 30.0907 19.5356 30.0906H21.0379V32.5789C21.0395 34.9207 21.6304 37.2245 22.7562 39.2779C23.882 41.3313 25.5066 43.0684 27.4801 44.3291V47.3828C27.4823 47.7079 27.5057 48.0325 27.5501 48.3546L20.9745 49.7612H20.9673L18.2242 50.3485C16.543 50.7135 15.0367 51.6412 13.9543 52.9784C12.8719 54.3155 12.2783 55.982 12.2715 57.7023V71.4453C12.2715 71.6991 12.3723 71.9426 12.5518 72.122C12.7313 72.3015 12.9747 72.4023 13.2285 72.4023H56.7707C57.0245 72.4023 57.2679 72.3015 57.4474 72.122C57.6269 71.9426 57.7277 71.6991 57.7277 71.4453V57.7023C57.7203 55.9827 57.1265 54.317 56.0444 52.9806C54.9623 51.6441 53.4566 50.7167 51.7761 50.3518ZM47.8588 24.8953H43.3395V19.2898C43.3395 19.036 43.2386 18.7926 43.0591 18.6131C42.8797 18.4336 42.6362 18.3328 42.3824 18.3328C42.1286 18.3328 41.8852 18.4336 41.7057 18.6131C41.5262 18.7926 41.4254 19.036 41.4254 19.2898V24.8953H38.4176V12.6874C41.1019 13.4239 43.4742 15.0127 45.177 17.2146C46.8799 19.4165 47.8211 22.1121 47.8588 24.8953ZM33.4957 9.51172H36.5035V24.8953H33.4957V9.51172ZM31.5816 12.688V24.8953H28.5738V19.2898C28.5738 19.036 28.473 18.7926 28.2935 18.6131C28.114 18.4336 27.8706 18.3328 27.6168 18.3328C27.363 18.3328 27.1196 18.4336 26.9401 18.6131C26.7606 18.7926 26.6598 19.036 26.6598 19.2898V24.8953H22.1404C22.1781 22.1121 23.1193 19.4165 24.8221 17.2148C26.525 15.013 28.8973 13.4242 31.5816 12.688ZM20.4927 26.8094H49.5066V28.1766H20.4927V26.8094ZM22.9536 32.5789V30.0906H47.0473V32.5789C47.0473 35.7741 45.778 38.8385 43.5186 41.0979C41.2592 43.3573 38.1948 44.6266 34.9996 44.6266C31.8044 44.6266 28.74 43.3573 26.4806 41.0979C24.2213 38.8385 22.952 35.7741 22.952 32.5789H22.9536ZM34.9996 46.5352C36.9295 46.537 38.8386 46.1365 40.6051 45.3594V47.3828C40.6051 48.8695 40.0145 50.2952 38.9633 51.3465C37.912 52.3977 36.4863 52.9883 34.9996 52.9883C33.5129 52.9883 32.0872 52.3977 31.0359 51.3465C29.9847 50.2952 29.3941 48.8695 29.3941 47.3828V45.3594C31.1606 46.1365 33.0697 46.537 34.9996 46.5352ZM14.1855 57.7023C14.1914 56.4202 14.6345 55.1785 15.4416 54.1822C16.2487 53.186 17.3715 52.4949 18.6245 52.2232L20.2176 51.882V70.4883H14.1855V57.7023ZM22.1316 51.4723L28.0379 50.208C28.5407 51.4414 29.3616 52.5194 30.4168 53.3321C31.472 54.1449 32.7239 54.6633 34.0448 54.8345V70.4883H22.1316V51.4723ZM35.9566 70.4883V54.8345C37.2776 54.6634 38.5295 54.145 39.5847 53.3323C40.64 52.5195 41.4608 51.4414 41.9635 50.208L47.8698 51.4723V70.4883H35.9566ZM55.8137 70.4883H49.7816V51.8825L51.3752 52.2237C52.6281 52.4956 53.7507 53.1866 54.5577 54.1827C55.3647 55.1788 55.8077 56.4204 55.8137 57.7023V70.4883Z" fill="#2D2D2D"></path>
    <path d="M53.4902 60.813C53.3645 60.8129 53.2401 60.8376 53.1239 60.8857C53.0078 60.9338 52.9022 61.0043 52.8134 61.0931C52.7245 61.182 52.654 61.2875 52.6059 61.4037C52.5578 61.5198 52.5331 61.6443 52.5332 61.77V65.1907C52.5332 65.4445 52.634 65.688 52.8135 65.8674C52.993 66.0469 53.2364 66.1478 53.4902 66.1478C53.7441 66.1478 53.9875 66.0469 54.167 65.8674C54.3464 65.688 54.4473 65.4445 54.4473 65.1907V61.77C54.4473 61.5162 54.3464 61.2728 54.167 61.0933C53.9875 60.9138 53.7441 60.813 53.4902 60.813Z" fill="#2D2D2D"></path>
    <path d="M30.5488 58.6372H25.627C25.3731 58.6372 25.1297 58.738 24.9502 58.9175C24.7708 59.097 24.6699 59.3404 24.6699 59.5942C24.6699 59.8481 24.7708 60.0915 24.9502 60.271C25.1297 60.4504 25.3731 60.5513 25.627 60.5513H30.5488C30.8026 60.5513 31.0461 60.4504 31.2256 60.271C31.405 60.0915 31.5059 59.8481 31.5059 59.5942C31.5059 59.3404 31.405 59.097 31.2256 58.9175C31.0461 58.738 30.8026 58.6372 30.5488 58.6372Z" fill="#2D2D2D"></path>
  </symbol>
  <symbol fill="none" xmlns="http://www.w3.org/2000/svg" viewBox="0 0 80 75" id="tools">
    <circle cx="54" cy="26" r="26" fill="#FFEFC7"></circle>
    <g clip-path="url(#clip0_3_8404)">
      <path d="M0.221358 11.4213L4.8898 19.5906C5.04727 19.8666 5.31084 20.0664 5.61906 20.1437L9.97448 21.2325L24.9126 36.1707L26.5632 34.5206L11.3912 19.3491C11.2419 19.1993 11.0547 19.0932 10.8497 19.0418L6.66471 17.9919L2.69001 11.0324L6.09772 7.62471L13.0601 11.6033L14.1105 15.7882C14.1614 15.9937 14.268 16.1814 14.4173 16.3308L29.5892 31.5027L31.2393 29.8521L16.3012 14.914L15.2123 10.561C15.135 10.2523 14.9353 9.98822 14.6592 9.83027L6.48948 5.16231C6.03387 4.90306 5.46063 4.97987 5.08904 5.35002L0.421078 10.0185C0.0456435 10.3877 -0.0359725 10.9619 0.221358 11.4213Z" fill="#2D2D2D"></path>
      <path d="M48.7425 28.0007L23.0676 53.6761L21.417 52.0255L47.0925 26.3506L48.7425 28.0007Z" fill="#2D2D2D"></path>
      <path d="M18.5731 54.5846C18.3619 54.2332 17.9826 54.0186 17.5726 54.0186H10.5704C10.1609 54.0186 9.78114 54.2332 9.57038 54.5846L6.06906 60.4197C5.84677 60.7894 5.84677 61.2517 6.06906 61.6218L9.57038 67.4569C9.78114 67.8079 10.1609 68.023 10.5704 68.023H17.5726C17.9826 68.023 18.3619 67.8079 18.5731 67.4569L22.0739 61.6218C22.2962 61.2517 22.2962 60.7894 22.0739 60.4197L18.5731 54.5846ZM16.9125 65.6887H11.231L8.43016 61.0208L11.231 56.3523H16.9125L19.7133 61.0208L16.9125 65.6887Z" fill="#2D2D2D"></path>
      <path d="M56.0848 33.0115C63.7927 33.0374 70.0628 26.8097 70.0887 19.1018C70.0925 17.9284 69.9485 16.7599 69.66 15.6225C69.5044 14.997 68.8712 14.6163 68.2456 14.7718C68.0401 14.8232 67.8529 14.9293 67.7031 15.0786L60.4383 22.3386L54.6743 20.4177L52.752 14.6551L60.0168 7.38892C60.4724 6.93283 60.4719 6.19397 60.0158 5.73836C59.8656 5.58809 59.6764 5.48151 59.4695 5.43062C51.9944 3.53761 44.4008 8.06249 42.5077 15.5371C42.2202 16.6711 42.0766 17.8367 42.0805 19.0067C42.0833 19.9256 42.1779 20.8416 42.3642 21.7413L16.8054 47.2996C15.9057 47.1138 14.9897 47.0192 14.0712 47.0159C6.33644 47.0159 0.0664062 53.2859 0.0664062 61.0207C0.0664062 68.755 6.33644 75.025 14.0712 75.025C21.8056 75.025 28.0756 68.755 28.0756 61.0207C28.0727 60.1018 27.9777 59.1858 27.7919 58.2861L33.9107 52.1673L36.5867 54.8433C37.0428 55.2989 37.7812 55.2989 38.2373 54.8433L38.8206 54.2595C39.3324 53.7511 40.1596 53.7511 40.6714 54.2595C41.1827 54.7694 41.1836 55.5971 40.6738 56.1084C40.6733 56.1088 40.6723 56.1098 40.6714 56.1108L40.0881 56.6941C39.6325 57.1497 39.6325 57.8885 40.0881 58.3442L54.0098 72.2659C57.6715 75.9612 63.6353 75.9881 67.3306 72.3264C71.0254 68.6647 71.0523 62.7005 67.3906 59.0057C67.3709 58.9856 67.3507 58.9654 67.3306 58.9452L53.4088 45.0239C52.9532 44.5683 52.2143 44.5683 51.7587 45.0239L51.1754 45.6073C50.6631 46.1162 49.8364 46.1162 49.3241 45.6073C48.8133 45.0974 48.8119 44.2697 49.3217 43.7589C49.3227 43.7579 49.3236 43.7575 49.3241 43.7565L49.9079 43.1727C50.3635 42.7171 50.3635 41.9782 49.9079 41.5226L47.2319 38.8466L53.3507 32.7278C54.2504 32.9136 55.1664 33.0086 56.0848 33.0115ZM60.6702 72.6913C59.8224 72.6898 58.9817 72.5367 58.1881 72.2385L67.3027 63.1235C68.6782 66.7823 66.8274 70.8631 63.1686 72.2385C62.3702 72.5386 61.5238 72.6922 60.6702 72.6913ZM47.4489 42.3594C46.1565 43.901 46.3591 46.1987 47.9006 47.4907C49.2555 48.6261 51.2301 48.6251 52.5835 47.4873L65.6805 60.5958C65.8226 60.7384 65.9556 60.8886 66.0842 61.0413L56.1059 71.0196C55.9528 70.8914 55.8025 70.7584 55.6599 70.6158L42.5529 57.5078C43.8453 55.9662 43.6427 53.6685 42.1011 52.3766C40.7463 51.2407 38.7712 51.2421 37.4178 52.3795L35.5507 50.5124L45.5813 40.4967L47.4489 42.3594ZM52.1615 30.6216L25.6867 57.0911C25.3962 57.3811 25.2795 57.8021 25.3784 58.2001C26.9796 64.4879 23.1801 70.8832 16.8918 72.4839C10.604 74.085 4.20866 70.2855 2.60755 63.9973C1.00691 57.7095 4.80638 51.3141 11.0947 49.713C12.9968 49.2291 14.9897 49.2291 16.8918 49.713C17.2898 49.8105 17.7099 49.6938 18.0008 49.4053L44.4694 22.9353C44.7594 22.6453 44.876 22.2243 44.7762 21.8268C43.1861 15.6124 46.9347 9.28577 53.149 7.69522C54.3234 7.39516 55.538 7.27994 56.7478 7.35531L50.5916 13.514C50.279 13.826 50.1696 14.2883 50.3093 14.7075L52.643 21.7101C52.7597 22.0582 53.0333 22.3318 53.3819 22.4475L60.3845 24.7818C60.8032 24.9215 61.2655 24.8125 61.5781 24.5004L67.7343 18.3442C67.7482 18.5669 67.7554 18.7873 67.7554 19.0067C67.7881 25.4193 62.6165 30.6442 56.2039 30.6773C55.2125 30.6821 54.2245 30.5602 53.2643 30.3144C52.8663 30.215 52.4452 30.3312 52.1552 30.6211H52.1615V30.6216Z" fill="#2D2D2D"></path>
      <path d="M60.4134 63.6965L58.7629 65.3471L47.0928 53.6769L48.7429 52.0264L60.4134 63.6965Z" fill="#2D2D2D"></path>
    </g>
    <defs>
      <clipPath id="clip0_3_8404">
        <rect width="70" height="70" fill="white" transform="translate(0 5)"></rect>
      </clipPath>
    </defs>
  </symbol>
  <symbol fill="none" xmlns="http://www.w3.org/2000/svg" viewBox="0 0 75 75" id="clock">
    <circle cx="49" cy="26" r="26" fill="#FFEFC7"></circle>
    <g clip-path="url(#clip0_3_8391)">
      <path d="M35 74.9264C15.7004 74.9264 0 59.4668 0 40.4632C0 21.4596 15.7004 6 35 6C54.2996 6 70 21.4596 70 40.4632C70 59.4668 54.2996 74.9264 35 74.9264ZM35 8.87193C17.3104 8.87193 2.91667 23.0449 2.91667 40.4632C2.91667 57.8815 17.3104 72.0545 35 72.0545C52.6896 72.0545 67.0833 57.8815 67.0833 40.4632C67.0833 23.0449 52.6896 8.87193 35 8.87193Z" fill="#2D2D2D"></path>
      <path d="M51.041 57.6954C50.6677 57.6954 50.2943 57.5546 50.0085 57.276L33.9668 41.4804C33.6956 41.2105 33.541 40.8457 33.541 40.4637V18.9242C33.541 18.1316 34.1943 17.4883 34.9993 17.4883C35.8043 17.4883 36.4577 18.1316 36.4577 18.9242V39.8693L52.0735 55.2456C52.6423 55.8056 52.6423 56.716 52.0735 57.276C51.7877 57.5546 51.4143 57.6954 51.041 57.6954Z" fill="#2D2D2D"></path>
    </g>
    <defs>
      <clipPath id="clip0_3_8391">
        <rect width="70" height="68.9264" fill="white" transform="translate(0 6)"></rect>
      </clipPath>
    </defs>
  </symbol>
</svg>